<!DOCTYPE svg PUBLIC "-//W3C//DTD SVG 1.1//EN" "http://www.w3.org/Graphics/SVG/1.1/DTD/svg11.dtd">
<!-- Uploaded to: SVG Repo, www.svgrepo.com, Transformed by: SVG Repo Mixer Tools -->
<svg fill="#000000" height="79px" width="79px" version="1.1" id="Layer_1" xmlns="http://www.w3.org/2000/svg" xmlns:xlink="http://www.w3.org/1999/xlink" viewBox="0 0 359.965 359.965" xml:space="preserve">
<g id="SVGRepo_bgCarrier" stroke-width="0"/>
<g id="SVGRepo_tracerCarrier" stroke-linecap="round" stroke-linejoin="round"/>
<g id="SVGRepo_iconCarrier"> <g id="XMLID_28_"> <path id="XMLID_29_" d="M269.966,136.037V89.995c0-22.002-15.426-41.832-43.435-55.837c-24.705-12.352-57.217-19.154-91.548-19.154 c-34.333,0-66.846,6.803-91.55,19.155C15.425,48.163,0,67.993,0,89.995v59.992v59.99v59.992c0,22.003,15.425,41.833,43.433,55.837 c24.703,12.352,57.217,19.154,91.55,19.154c26.155,0,51.09-3.902,72.629-11.303c14.236,7.225,30.328,11.303,47.355,11.303 c57.896,0,104.999-47.102,104.999-105C359.965,187.156,320.781,143.338,269.966,136.037z M30,198.013 c4.091,2.765,8.567,5.378,13.433,7.811c24.704,12.352,57.217,19.154,91.55,19.154c5.414,0,10.798-0.179,16.131-0.517 c-0.752,5.061-1.146,10.234-1.146,15.5c0,4.899,0.346,9.719,0.998,14.442c-5.271,0.375-10.61,0.566-15.982,0.566 C74.896,254.97,30,231.216,30,209.977V198.013z M160.833,193.482c-8.423,0.992-17.085,1.495-25.851,1.495 C74.896,194.977,30,171.225,30,149.987v-11.966c4.091,2.766,8.567,5.378,13.433,7.811c24.704,12.352,57.217,19.155,91.55,19.155 c18.473,0,36.404-1.987,52.891-5.73C176.641,168.611,167.387,180.264,160.833,193.482z M134.982,45.004 c60.086,0,104.983,23.753,104.983,44.991c0,21.239-44.898,44.992-104.983,44.992S30,111.234,30,89.995 C30,68.757,74.896,45.004,134.982,45.004z M30,269.97v-11.966c4.091,2.766,8.567,5.378,13.433,7.81 c24.703,12.353,57.217,19.155,91.55,19.155c8.28,0,16.504-0.407,24.574-1.194c4.576,9.926,10.654,19.02,17.944,26.99 c-13.367,2.737-27.842,4.195-42.519,4.195C74.896,314.961,30,291.208,30,269.97z M254.966,314.961 c-41.355,0-74.999-33.645-74.999-75c0-41.238,33.457-74.803,74.651-74.991c0.117,0.003,0.23,0.018,0.348,0.018 c0.117,0,0.23-0.015,0.348-0.018c41.194,0.189,74.651,33.753,74.651,74.991C329.965,281.316,296.32,314.961,254.966,314.961z"/> <path id="XMLID_88_" d="M272.542,208.37h2.636c4.371,0,7.076-3.786,7.076-7.295c0-4.091-3.108-7.296-7.076-7.296h-2.087 c-13.852,0-26.206,10.63-28.129,24.209l-1.936,13.908h-5.745c-3.66,0-6.527,3.107-6.527,7.075c0,3.845,2.867,6.856,6.527,6.856 h3.746l-3.599,25.614h-3.005c-3.846,0-6.746,3.136-6.746,7.295c0,4.291,2.837,7.405,6.746,7.405h41.304 c3.721,0,6.526-3.184,6.526-7.405c0-4.159-2.806-7.295-6.526-7.295h-23.176l3.684-25.614h13.78c3.596,0,6.307-2.947,6.307-6.856 c0-4.033-2.711-7.075-6.307-7.075h-11.771l1.786-12.832C260.726,213.808,265.596,208.37,272.542,208.37z"/> </g> </g>
</svg>